<?xml version="1.0" standalone="no"?>
<!DOCTYPE svg PUBLIC "-//W3C//DTD SVG 1.1//EN" "http://www.w3.org/Graphics/SVG/1.1/DTD/svg11.dtd" >
<svg xmlns="http://www.w3.org/2000/svg">
<metadata>Generated by IcoMoon</metadata>
<defs>
<font id="icomoon" horiz-adv-x="1024">
<font-face units-per-em="1024" ascent="960" descent="-64" />
<missing-glyph horiz-adv-x="1024" />
<glyph unicode="&#x20;" horiz-adv-x="512" d="" />
<glyph unicode="&#xe900;" glyph-name="fast-mail" horiz-adv-x="1873" d="M567.358 391.443h-215.877c-27.586 0-49.951-22.366-49.951-49.951s22.366-49.951 49.951-49.951h215.877c27.586 0 49.951 22.366 49.951 49.951s-22.353 49.951-49.951 49.951zM599.365 557.955h-340.755c-27.586 0-49.951-22.366-49.951-49.951s22.366-49.951 49.951-49.951h340.755c27.586 0 49.951 22.366 49.951 49.951s-22.366 49.951-49.951 49.951zM620.432 724.455h-465.633c-27.586 0-49.951-22.366-49.951-49.951s22.366-49.951 49.951-49.951h465.633c27.586 0 49.951 22.366 49.951 49.951s-22.353 49.951-49.951 49.951zM1433.388 391.767l188.379-233.010 77.662 402.395c-18.195-16.684-38.487-31.781-60.953-45.331-80.322-48.028-148.68-89.363-205.087-124.054zM1724.216 762.418c-13.387 16.322-31.432 24.476-54.060 24.476h-769.124c-26.824 0-49.177-9.041-67.047-27.074-17.858-18.057-29.346-40.648-34.466-67.734-4.133-21.879 0.962-45.568 15.26-71.106 14.311-25.525 30.895-45.568 49.701-60.154 10.24-8.329 41.235-33.080 92.897-74.215 27.91-22.216 52.162-41.584 72.979-58.306 17.745-14.224 33.030-26.549 45.63-36.777 1.449-1.174 3.734-3.035 6.756-5.532 3.234-2.685 7.355-6.107 12.413-10.352 9.728-8.155 17.87-14.761 24.389-19.793 6.506-5.033 14.473-10.665 23.877-16.921 9.428-6.244 18.532-10.952 27.323-14.074 8.791-3.109 17.183-4.683 25.175-4.683h1.061c7.967 0 16.971 1.573 26.924 4.683 10.003 3.122 20.892 7.83 32.693 14.074 11.801 6.256 21.929 11.888 30.37 16.921 8.454 5.033 19.094 11.639 31.969 19.793 6.668 4.246 12.088 7.668 16.359 10.34 3.971 2.51 6.956 4.383 8.866 5.545 12.862 7.892 32.88 20.155 59.804 36.639 49.015 30.008 121.219 74.165 216.926 132.67 28.822 17.708 54.16 39.074 76.063 64.075 21.841 24.988 35.428 51.212 40.723 78.648 4.421 22.89-0.075 42.508-13.462 58.855zM1354.889 336.109c-22.603-14.573-40.86-25.95-54.784-34.104-13.899-8.167-31.931-16.496-54.047-25.001-22.128-8.529-42.071-12.75-59.779-12.75h-1.049c-17.745 0-36.040 4.233-54.909 12.75-18.907 8.504-33.755 16.834-44.507 25.001-10.777 8.155-24.701 19.531-41.759 34.104-4.733 4.046-10.040 8.492-15.747 13.25l-314.892-264.554c12.85-13.687 29.746-20.605 50.725-20.605h766.764c20.992 0 40.51 6.931 58.593 20.605l-213.766 264.479c-7.205-4.546-14.224-8.966-20.842-13.175zM829.677 515.821c-17.333 13.2-32.056 28.31-44.157 45.331l-76.088-402.395 277.516 233.11c-40.548 32.556-92.872 73.828-157.271 123.954z" />
<glyph unicode="&#xe901;" glyph-name="cake" horiz-adv-x="1012" d="M707.422 513.536h111.616c43.008 0 81.396-18.594 110.455-46.517 27.91-27.91 45.331-67.434 45.331-110.467v-46.505h-917.317v60.478c0 39.536 16.284 74.39 41.847 101.139v0c25.575 25.6 61.64 41.859 101.164 41.859h506.905zM974.823 227.515v-173.231c0-15.11-5.807-29.034-16.259-38.338v0 0c-9.316-10.49-23.252-16.297-38.363-16.297h-799.906c-17.445 0-33.692 6.968-44.194 18.619-11.614 10.452-18.594 26.711-18.594 44.169v195.309l19.768-12.763c12.788-6.981 26.724-13.949 41.847-19.806 13.974-5.807 30.22-9.266 47.666-10.44v0c73.253-5.807 102.325 26.761 123.255 51.15 26.724 32.556 44.169 52.311 97.667-1.149l1.161-1.174c11.614-10.465 25.575-20.905 43.020-30.208 17.42-9.328 38.338-17.445 61.59-18.619v0c59.305-4.633 100.002 26.761 130.223 50.001 27.923 20.93 49.564 38.063 70.931 19.768 16.621-14.236 43.757-44.569 65.124-58.156 19.356-12.288 44.169-22.078 70.906-24.389 24.439 0 47.678 4.645 68.608 11.614 20.93 6.981 39.524 16.272 55.808 25.612l19.743 12.763v-24.439zM357.201 707.946c24.576 0 44.544 19.931 44.544 44.519 0 45.143-18.095 94.72-44.544 101.888 9.104-24.489-44.507-63.338-44.507-101.888 0-24.588 19.931-44.519 44.507-44.519zM357.214 681.622c-28.435 0-44.519 21.404-44.519 21.404v-202.752h88.876v202.752c0 0-15.922-21.404-44.357-21.404zM516.084 707.946c24.576 0 44.532 19.931 44.532 44.519 0 45.143-18.082 94.72-44.532 101.888 9.104-24.489-44.507-63.338-44.507-101.888-0.012-24.588 19.918-44.519 44.507-44.519zM516.096 681.622c-28.435 0-44.519 21.404-44.519 21.404v-202.752h88.876v202.752c-0.012 0-15.922-21.404-44.357-21.404zM675.128 707.946c24.576 0 44.532 19.931 44.532 44.519 0 45.143-18.095 94.72-44.532 101.888 9.104-24.489-44.507-63.338-44.507-101.888-0.012-24.588 19.918-44.519 44.507-44.519zM675.128 681.622c-28.422 0-44.507 21.404-44.507 21.404v-202.752h88.876v202.752c-0.012 0-15.934-21.404-44.369-21.404z" />
<glyph unicode="&#xe902;" glyph-name="celphone" horiz-adv-x="1012" d="M735.719 848.908h-426.159c-21.779 0-39.449-17.133-39.449-38.288v-754.463c0-21.167 17.67-38.3 39.449-38.3h426.159c21.779 0 39.474 17.133 39.474 38.3v754.451c0 21.167-17.695 38.3-39.474 38.3zM529.221 83.069c-21.641 0-39.249 17.57-39.249 39.262s17.595 39.274 39.249 39.274c21.691 0 39.287-17.57 39.287-39.274 0-21.679-17.595-39.262-39.287-39.262zM704.225 179.687h-363.183v591.984h363.183v-591.984z" />
<glyph unicode="&#xe903;" glyph-name="check" horiz-adv-x="1012" d="M538.124 49.602c-26.449-35.965-67.796-58.056-112.365-60.266-44.644-2.21-87.789 15.797-117.748 48.965l-267.788 297.185c-42.571 47.216-38.8 120.095 8.417 162.654s119.945 38.737 162.529-8.492l189.502-210.307c2.86-3.109 6.981-4.745 11.064-4.645 4.196 0.225 8.067 2.335 10.627 5.757l389.532 528.284c37.713 51.088 109.78 62.014 160.993 24.314 51.075-37.713 62.027-109.793 24.314-160.98l-459.077-622.467z" />
<glyph unicode="&#xe904;" glyph-name="close" horiz-adv-x="1012" d="M712.017 782.985l-197.070-197.058-197.27 197.32c-43.695 43.62-114.75 43.395-158.408-0.237-43.67-43.657-43.895-114.75-0.237-158.408l197.282-197.295-197.357-197.37c-43.645-43.657-43.62-114.451 0.037-158.108 43.632-43.607 114.438-43.657 158.058-0.025l197.395 197.407 197.382-197.382c43.645-43.632 114.75-43.42 158.42 0.25 43.62 43.632 43.845 114.738 0.187 158.37l-197.37 197.395 197.145 196.933c43.645 43.67 43.532 114.563-0.087 158.196-43.632 43.645-114.463 43.682-158.108 0.012v0z" />
<glyph unicode="&#xe905;" glyph-name="cup" horiz-adv-x="1012" d="M732.972 408.913c115.512 45.518 196.608 131.047 196.608 261.769 0 33.792-5.445 67.259-16.197 99.228h-137.228l9.666 80.821c-365.543 0-179.824 0-545.367 0l9.666-80.821h-136.467c-10.789-31.969-16.209-65.436-16.209-99.228 0-130.398 80.721-215.677 195.784-261.42 23.764-91.261 90.237-145.683 164.964-163.328v-130.185h-97.954c-56.158 0-85.616-28.56-85.616-79.31v-18.607h477.821v18.607c0 50.738-29.496 79.31-85.616 79.31h-97.954v130.423c74.327 17.87 140.35 72.117 164.102 162.741zM770.46 714.315h100.102c1.848-14.736 3.422-28.61 3.422-43.632 0-95.257-52.499-151.864-130.86-195.559l27.336 239.191zM153.013 670.683c0 15.023 1.598 28.884 3.459 43.632h99.365l27.298-238.742c-77.936 43.82-130.123 100.165-130.123 195.109z" />
<glyph unicode="&#xe906;" glyph-name="doc" horiz-adv-x="1012" d="M855.202 607.22l-256.275 234.846 1.111-235.87 255.163 1.024zM559.616 564.699l-2.173 276.867h-348.048c-24.751 0-43.145-19.081-43.145-42.633v-744.173c0-23.54 18.395-42.621 43.145-42.621h604.947c24.726 0 46.442 19.081 46.442 42.621v510.314l-301.168-0.375zM698.905 139.901h-370.813c-15.16 0-27.436 12.288-27.436 27.436s12.263 27.461 27.436 27.461h370.8c15.173 0 27.461-12.313 27.461-27.461s-12.276-27.436-27.448-27.436zM698.905 263.58h-370.813c-15.16 0-27.436 12.288-27.436 27.436 0 15.173 12.263 27.436 27.436 27.436h370.8c15.173 0 27.461-12.263 27.461-27.436 0.012-15.135-12.276-27.436-27.448-27.436zM698.905 387.259h-370.813c-15.16 0-27.436 12.276-27.436 27.448 0 15.16 12.263 27.423 27.436 27.423h370.8c15.173 0 27.461-12.263 27.461-27.423 0.012-15.173-12.276-27.448-27.448-27.448z" />
<glyph unicode="&#xe907;" glyph-name="gift" horiz-adv-x="1012" d="M826.143 632.595h-96.955c2.51 1.261 4.933 2.56 7.031 3.934 51.924 33.992 66.51 103.886 32.518 155.798-20.855 31.881-56.095 50.913-94.245 50.913-21.879 0-43.17-6.356-61.565-18.382-34.092-22.341-71.118-101.326-91.198-149.204-20.043 47.866-57.069 126.864-91.198 149.204-18.395 12.026-39.661 18.382-61.54 18.382-38.175 0-73.391-19.031-94.27-50.913-33.979-51.924-19.394-121.819 32.531-155.798 2.098-1.374 4.483-2.672 7.031-3.934h-105.897c-35.39 0-64.2-28.797-64.2-64.2v-131.884c0-24.501 13.824-45.83 34.054-56.632v-308.811c0-35.403 28.809-64.2 64.2-64.2h549.663c35.415 0 64.2 28.797 64.2 64.2v308.811c20.243 10.802 34.054 32.131 34.054 56.632v131.884c-0.012 35.403-28.822 64.2-64.212 64.2zM633.606 793.25c12.226 7.992 26.362 12.226 40.873 12.226 25.363 0 48.777-12.65 62.664-33.829 22.59-34.491 12.875-80.933-21.604-103.524-8.167-5.345-37.826-17.77-136.729-17.77-9.803 0-18.857 0.137-26.562 0.312 22.316 54.796 57.456 126.939 81.358 142.586zM306.313 771.646c13.874 21.179 37.289 33.829 62.689 33.829 14.511 0 28.635-4.221 40.848-12.213 23.902-15.66 59.055-87.802 81.371-142.598-7.705-0.175-16.734-0.312-26.562-0.312-98.903 0-128.562 12.425-136.729 17.77-34.491 22.578-44.194 69.020-21.616 103.524zM583.543 44.631h-121.169v327.68h121.169v-327.68zM583.543 410.075h-121.169v184.757h121.169v-184.757z" />
<glyph unicode="&#xe908;" glyph-name="hart" horiz-adv-x="1012" d="M977.745 640.187c-87.265 246.172-361.572 227.678-460.975 40.623-99.403 187.055-373.71 205.549-460.975-40.623-111.666-315.017 418.192-638.064 460.987-663.527 42.771 25.463 572.628 348.51 460.962 663.527z" />
<glyph unicode="&#xe909;" glyph-name="link" horiz-adv-x="1012" d="M458.215 205.712l-55.683-55.746c-43.195-43.17-113.427-43.17-156.56 0-43.195 43.17-43.195 113.389 0 156.585l156.56 156.56c43.145 43.145 113.389 43.183 156.56 0 13.512-13.512 22.291-29.783 27.323-46.979 4.084 2.348 8.354 4.346 11.813 7.83l72.754 72.766c-9.341 15.785-20.005 31.082-33.63 44.656-86.441 86.503-226.666 86.503-313.119 0l-156.597-156.547c-86.441-86.478-86.441-226.679 0-313.157 86.491-86.466 226.679-86.466 313.182 0l118.647 118.634c-47.391-6.931-96.081-2.21-141.25 15.397zM872.248 776.304c-86.466 86.441-226.679 86.441-313.144 0l-118.672-118.659c47.416 6.968 96.094 2.223 141.25-15.348l55.696 55.733c43.183 43.145 113.439 43.145 156.61 0 43.158-43.183 43.158-113.427 0-156.622l-156.622-156.572c-43.183-43.195-113.389-43.195-156.547 0-13.487 13.474-22.278 29.758-27.348 46.929-4.108-2.385-8.329-4.333-11.788-7.792l-72.766-72.729c9.291-15.847 20.005-31.095 33.617-44.681 86.453-86.478 226.679-86.478 313.157 0l156.56 156.56c86.453 86.503 86.453 226.679 0 313.182z" />
<glyph unicode="&#xe90a;" glyph-name="mail" horiz-adv-x="1012" d="M897.186 62.089c20.992 0 39.174 6.918 54.622 20.592l-264.467 264.492c-6.344-4.533-12.5-8.979-18.307-13.175-19.793-14.573-35.852-25.95-48.19-34.104-12.325-8.167-28.747-16.496-49.214-25.013-20.492-8.517-39.599-12.75-57.294-12.75h-1.049c-17.733 0-36.802 4.246-57.294 12.75-20.517 8.517-36.939 16.846-49.227 25.013-12.325 8.155-28.385 19.531-48.203 34.104-5.495 4.046-11.639 8.492-18.245 13.25l-264.529-264.567c15.435-13.687 33.642-20.592 54.622-20.592h766.776zM110.442 513.711c-19.793 13.2-37.339 28.31-52.624 45.331v-402.395l233.11 233.11c-46.654 32.556-106.733 73.828-180.486 123.954zM917.691 513.711c-70.943-48.028-131.259-89.363-180.923-124.054l233.022-233.010v402.395c-14.935-16.684-32.293-31.781-52.099-45.331zM897.186 784.771h-766.776c-26.749 0-47.316-9.029-61.727-27.074-14.398-18.057-21.591-40.648-21.591-67.734 0-21.866 9.553-45.568 28.635-71.106 19.094-25.513 39.424-45.568 60.953-60.154 11.801-8.329 47.416-33.093 106.783-74.228 32.069-22.216 59.954-41.584 83.918-58.293 20.418-14.224 38.025-26.549 52.561-36.777 1.673-1.174 4.308-3.035 7.792-5.532 3.746-2.697 8.517-6.107 14.361-10.352 11.276-8.155 20.655-14.761 28.135-19.793 7.455-5.033 16.484-10.665 27.074-16.933 10.615-6.244 20.592-10.939 29.958-14.061 9.378-3.109 18.057-4.695 26.037-4.695h1.061c7.967 0 16.659 1.586 26.012 4.695 9.391 3.122 19.369 7.817 29.958 14.061 10.602 6.269 19.631 11.901 27.099 16.933 7.48 5.033 16.859 11.639 28.135 19.793 5.857 4.246 10.615 7.655 14.348 10.34 3.484 2.51 6.107 4.371 7.792 5.545 11.339 7.892 28.972 20.155 52.711 36.639 43.183 30.008 106.796 74.165 191.076 132.67 25.35 17.708 46.53 39.074 63.563 64.062 16.983 24.988 25.488 51.212 25.488 78.648 0 22.915-8.267 42.533-24.738 58.868-16.496 16.322-36.052 24.476-58.618 24.476z" />
<glyph unicode="&#xe90b;" glyph-name="phone" horiz-adv-x="1012" d="M911.972 190.901l-128.125 128.15c-25.5 25.413-67.796 24.638-94.196-1.761l-64.562-64.562c-4.059 2.273-8.279 4.608-12.738 7.093-40.748 22.59-96.543 53.535-155.286 112.303-58.88 58.868-89.862 114.75-112.528 155.548-2.385 4.321-4.695 8.492-6.931 12.438l43.333 43.258 21.292 21.342c26.449 26.449 27.173 68.708 1.723 94.196l-128.137 128.175c-25.45 25.463-67.734 24.688-94.196-1.773l-36.127-36.327 0.999-0.987c-12.101-15.435-22.228-33.268-29.758-52.486-6.956-18.295-11.264-35.74-13.262-53.248-16.908-140.263 47.191-268.463 221.147-442.418 240.44-240.428 434.213-222.27 442.568-221.384 18.22 2.185 35.665 6.519 53.385 13.412 19.069 7.455 36.889 17.545 52.299 29.621l0.787-0.687 36.589 35.815c26.449 26.474 27.161 68.745 1.723 94.283z" />
<glyph unicode="&#xe90c;" glyph-name="play" horiz-adv-x="1012" d="M856.826 471.165l-650.777 375.696c-35.753 20.655-65.411 6.469-69.607-31.12-0.312-2.997-0.549-6.094-0.549-9.378v-751.541c0-44.519 31.544-62.726 70.107-40.498l650.852 375.845c38.587 22.228 38.587 58.68-0.025 80.996z" />
<glyph unicode="&#xe90d;" glyph-name="search" horiz-adv-x="1012" d="M938.833 107.532l-180.062 180.074c91.486 137.066 76.788 324.046-44.194 445.040-137.778 137.778-361.147 137.778-498.925 0s-137.778-361.16 0-498.938c120.982-120.982 307.962-135.68 445.040-44.182l180.074-180.062c27.086-27.086 71.006-27.086 98.079 0 27.086 27.074 27.086 70.968-0.012 98.067zM636.466 311.833c-94.633-94.62-248.070-94.633-342.703 0s-94.62 248.070 0 342.69c94.645 94.645 248.070 94.645 342.703 0 94.633-94.633 94.633-248.045 0-342.69z" />
<glyph unicode="&#xe90e;" glyph-name="star" horiz-adv-x="1012" d="M781.337 321.948l162.516 158.42c22.778 22.203 17.246 57.569-6.019 73.753-6.319 4.808-15.023 7.243-20.555 8.042l-224.593 32.631c-15.635 2.273-29.134 12.076-36.127 26.237l-100.439 203.514c-17.583 35.64-68.421 35.64-85.991 0l-100.439-203.514c-6.993-14.161-20.492-23.964-36.115-26.237l-224.593-32.631c-26.149-3.796-41.834-26.412-41.060-49.314-0.025-11.339 6.831-25.026 14.486-32.481l162.516-158.42c8.966-8.729 14.049-20.555 14.436-32.818-0.112-1.186-0.45-8.454-0.649-9.628l-21.829-127.251-16.534-96.431c-6.731-39.187 34.404-69.070 69.582-50.563l200.866 105.584c13.974 7.343 30.683 7.343 44.644 0l200.879-105.584c35.178-18.482 76.3 11.376 69.57 50.563l-21.442 125.028-16.908 98.654c-0.812 4.683-1.823 12.9 0.999 20.705 2.248 8.155 6.581 15.697 12.8 21.741z" />
<glyph unicode="&#xe922;" glyph-name="file-text" d="M864 960h-768c-52.8 0-96-43.2-96-96v-832c0-52.8 43.2-96 96-96h768c52.8 0 96 43.2 96 96v832c0 52.8-43.2 96-96 96zM832 64h-704v768h704v-768zM256 512h448v-64h-448zM256 384h448v-64h-448zM256 256h448v-64h-448zM256 640h448v-64h-448z" />
<glyph unicode="&#xe925;" glyph-name="files-empty" d="M917.806 602.924c-22.21 30.292-53.174 65.7-87.178 99.704s-69.412 64.964-99.704 87.178c-51.574 37.82-76.592 42.194-90.924 42.194h-368c-44.114 0-80-35.888-80-80v-736c0-44.112 35.886-80 80-80h608c44.112 0 80 35.888 80 80v496c0 14.332-4.372 39.35-42.194 90.924zM785.374 657.374c30.7-30.7 54.8-58.398 72.58-81.374h-153.954v153.946c22.982-17.78 50.678-41.878 81.374-72.572v0zM896 16c0-8.672-7.328-16-16-16h-608c-8.672 0-16 7.328-16 16v736c0 8.672 7.328 16 16 16 0 0 367.956 0.002 368 0v-224c0-17.672 14.324-32 32-32h224v-496zM602.924 917.804c-51.574 37.822-76.592 42.196-90.924 42.196h-368c-44.112 0-80-35.888-80-80v-736c0-38.632 27.528-70.958 64-78.39v814.39c0 8.672 7.328 16 16 16h486.876c-9.646 7.92-19.028 15.26-27.952 21.804z" />
<glyph unicode="&#xe926;" glyph-name="file-text2" d="M917.806 730.924c-22.212 30.292-53.174 65.7-87.178 99.704s-69.412 64.964-99.704 87.178c-51.574 37.82-76.592 42.194-90.924 42.194h-496c-44.112 0-80-35.888-80-80v-864c0-44.112 35.888-80 80-80h736c44.112 0 80 35.888 80 80v624c0 14.332-4.372 39.35-42.194 90.924zM785.374 785.374c30.7-30.7 54.8-58.398 72.58-81.374h-153.954v153.946c22.984-17.78 50.678-41.878 81.374-72.572zM896 16c0-8.672-7.328-16-16-16h-736c-8.672 0-16 7.328-16 16v864c0 8.672 7.328 16 16 16 0 0 495.956 0.002 496 0v-224c0-17.672 14.326-32 32-32h224v-624zM736 128h-448c-17.672 0-32 14.326-32 32s14.328 32 32 32h448c17.674 0 32-14.326 32-32s-14.326-32-32-32zM736 256h-448c-17.672 0-32 14.326-32 32s14.328 32 32 32h448c17.674 0 32-14.326 32-32s-14.326-32-32-32zM736 384h-448c-17.672 0-32 14.326-32 32s14.328 32 32 32h448c17.674 0 32-14.326 32-32s-14.326-32-32-32z" />
<glyph unicode="&#xe929;" glyph-name="file-play" d="M384 576l320-224-320-224v448zM917.806 730.924c-22.212 30.292-53.174 65.7-87.178 99.704s-69.412 64.964-99.704 87.178c-51.574 37.82-76.592 42.194-90.924 42.194h-496c-44.112 0-80-35.888-80-80v-864c0-44.112 35.888-80 80-80h736c44.112 0 80 35.888 80 80v624c0 14.332-4.372 39.35-42.194 90.924zM785.374 785.374c30.7-30.7 54.8-58.398 72.58-81.374h-153.954v153.946c22.984-17.78 50.678-41.878 81.374-72.572zM896 16c0-8.672-7.328-16-16-16h-736c-8.672 0-16 7.328-16 16v864c0 8.672 7.328 16 16 16 0 0 495.956 0.002 496 0v-224c0-17.672 14.326-32 32-32h224v-624z" />
<glyph unicode="&#xe9b8;" glyph-name="clipboard" d="M928 832h-288c0 70.692-57.306 128-128 128-70.692 0-128-57.308-128-128h-288c-17.672 0-32-14.328-32-32v-832c0-17.674 14.328-32 32-32h832c17.674 0 32 14.326 32 32v832c0 17.672-14.326 32-32 32zM512 896c35.346 0 64-28.654 64-64s-28.654-64-64-64c-35.346 0-64 28.654-64 64s28.654 64 64 64zM896 0h-768v768h128v-96c0-17.672 14.328-32 32-32h448c17.674 0 32 14.328 32 32v96h128v-768zM448 101.49l-205.254 237.254 58.508 58.51 146.746-114.744 274.742 242.744 58.514-58.508z" />
<glyph unicode="&#xe9cb;" glyph-name="link1" d="M440.236 324.234c-13.31 0-26.616 5.076-36.77 15.23-95.134 95.136-95.134 249.934 0 345.070l192 192c46.088 46.086 107.36 71.466 172.534 71.466s126.448-25.38 172.536-71.464c95.132-95.136 95.132-249.934 0-345.070l-87.766-87.766c-20.308-20.308-53.23-20.308-73.54 0-20.306 20.306-20.306 53.232 0 73.54l87.766 87.766c54.584 54.586 54.584 143.404 0 197.99-26.442 26.442-61.6 41.004-98.996 41.004s-72.552-14.562-98.996-41.006l-192-191.998c-54.586-54.586-54.586-143.406 0-197.992 20.308-20.306 20.306-53.232 0-73.54-10.15-10.152-23.462-15.23-36.768-15.23zM256-52c-65.176 0-126.45 25.38-172.534 71.464-95.134 95.136-95.134 249.934 0 345.070l87.764 87.764c20.308 20.306 53.234 20.306 73.54 0 20.308-20.306 20.308-53.232 0-73.54l-87.764-87.764c-54.586-54.586-54.586-143.406 0-197.992 26.44-26.44 61.598-41.002 98.994-41.002s72.552 14.562 98.998 41.006l192 191.998c54.584 54.586 54.584 143.406 0 197.992-20.308 20.308-20.306 53.232 0 73.54 20.306 20.306 53.232 20.306 73.54-0.002 95.132-95.134 95.132-249.932 0.002-345.068l-192.002-192c-46.090-46.088-107.364-71.466-172.538-71.466z" />
<glyph unicode="&#xe9ce;" glyph-name="eye" d="M512 768c-223.318 0-416.882-130.042-512-320 95.118-189.958 288.682-320 512-320 223.312 0 416.876 130.042 512 320-95.116 189.958-288.688 320-512 320zM764.45 598.296c60.162-38.374 111.142-89.774 149.434-150.296-38.292-60.522-89.274-111.922-149.436-150.296-75.594-48.218-162.89-73.704-252.448-73.704-89.56 0-176.858 25.486-252.452 73.704-60.158 38.372-111.138 89.772-149.432 150.296 38.292 60.524 89.274 111.924 149.434 150.296 3.918 2.5 7.876 4.922 11.86 7.3-9.96-27.328-15.41-56.822-15.41-87.596 0-141.382 114.616-256 256-256 141.382 0 256 114.618 256 256 0 30.774-5.452 60.268-15.408 87.598 3.978-2.378 7.938-4.802 11.858-7.302v0zM512 544c0-53.020-42.98-96-96-96s-96 42.98-96 96 42.98 96 96 96 96-42.982 96-96z" />
<glyph unicode="&#xea0c;" glyph-name="info" d="M448 656c0 26.4 21.6 48 48 48h32c26.4 0 48-21.6 48-48v-32c0-26.4-21.6-48-48-48h-32c-26.4 0-48 21.6-48 48v32zM640 192h-256v64h64v192h-64v64h192v-256h64zM512 960c-282.77 0-512-229.23-512-512s229.23-512 512-512 512 229.23 512 512-229.23 512-512 512zM512 32c-229.75 0-416 186.25-416 416s186.25 416 416 416 416-186.25 416-416-186.25-416-416-416z" />
<glyph unicode="&#xea15;" glyph-name="play2" d="M512 960c-282.77 0-512-229.23-512-512s229.23-512 512-512 512 229.23 512 512-229.23 512-512 512zM512 32c-229.75 0-416 186.25-416 416s186.25 416 416 416 416-186.25 416-416-186.25-416-416-416zM384 672l384-224-384-224z" />
</font>
</defs>
</svg>
